<svg width="1516" height="832" fill="none" xmlns="http://www.w3.org/2000/svg" id="svg-1370021087_1180"><mask id="svg-1370021087_1180_a" style="mask-type:alpha" maskUnits="userSpaceOnUse" x="0" y="0" width="1516" height="832"><rect width="1516" height="832" rx="32" fill="#000" fill-opacity=".25"/></mask><g mask="url(#svg-1370021087_1180_a)" stroke="#fff" stroke-width=".5"><path d="M624.25 338.251h258.5v144.5h-258.5z"/><path d="M586.25 314.25h333.5v192.5h-333.5z"/><path d="M558.25 295.25h389.5v230.5h-389.5z"/><path d="M505.25 261.25h495.5v298.5h-495.5v-298.5Z"/><path d="M427.25 210.25h652.5v400.5h-652.5v-400.5Z"/><path d="M283.25 116.25h940.5v588.5h-940.5v-588.5Z"/><path d="M106.25 11.25h1230.5v808.5H106.25V11.25ZM723.5 482.5 543.778 830.884M723.5 338.672 543.778-9.712M674 483 337 829.496m337-491.324L337-8.324m544.499 490.823 536.111 348.497M881.499 338.673 1417.61-9.824M624.833 482.498 88.72 830.995m536.113-492.321L88.72-9.823M840 482.5l338.11 346.997M840 338.672 1178.11-8.325M793.5 483l179.722 347.884M793.5 338.171 973.222-9.712M758.249 830.999l.001-348.499m-.001-492.327.001 348.499M883 409.939h749.33m-1007.999-1H-125m1008-33.438 744.33-173m-1002.999 172-744.331-173m1003 249.5 747.83 133m-1006.498-134-747.831 133"/></g></svg>
