<svg xmlns="http://www.w3.org/2000/svg" width="658" height="211" fill="none"><path fill="#fff" d="M195.188 105.01c6.106-12.975 8.61-26.773 9.385-40.964.155-5.486-.298-10.877-2.158-16.064-3.196-8.85-9.922-13.774-18.64-16.315-35.038-10.22-70.087-20.405-105.137-30.589-2.612-.763-3.22-.489-4.186 2.075a4866.256 4866.256 0 0 0-6.332 16.923c-3.149 8.503-6.25 17.018-9.422 25.509-2.934 7.87-5.986 15.706-8.908 23.589-4.174 11.234-8.229 22.492-12.415 33.726-2.91 7.811-5.975 15.575-8.908 23.386-3.542 9.421-7 18.866-10.507 28.288C12.188 170.077 6.404 185.58.644 201.096c-.31.823-.465 1.693-.644 2.576 0 0-.024 1.001 3.22.823.179-.036.37-.048.537-.096 16.958-5.033 33.892-10.137 50.827-15.229 8.121-2.445 16.23-4.901 24.352-7.334 1.539-.465 2.72-1.121 3.208-2.862 3.005-10.853 6.094-21.681 9.088-32.534.596-2.17 1.693-3.291 4.007-3.709 23.541-4.233 47.058-8.55 70.576-12.891 4.806-.883 9.23-2.851 13.273-5.546 7.251-4.818 12.415-11.448 16.088-19.26l.012-.024zm-18.354-30.184c-.083 1.05-.155 2.123-.405 3.149-1.288 5.355-3.292 7.322-8.11 7.68l-29.11-.62s-.024-.024-.024-.036c-2.409-.048-4.782-.083-7.132-.12h-.012c-6.845-.083-13.535-.107-20.524-.25-2.266-.047-2.576-.429-1.968-2.623 1.515-5.426 3.125-10.817 4.556-16.255.453-1.705 1.228-2.194 2.946-2.027 16.207 1.634 32.414 3.196 48.621 4.794 2.242.214 4.484.381 6.714.692 3.256.465 4.699 2.337 4.448 5.64v-.023zm480.844 133.938c-2.266-4.258-4.556-8.503-6.809-12.761-4.079-7.704-8.17-15.408-12.2-23.147-3.352-6.44-6.595-12.94-9.958-19.38-4.306-8.252-8.718-16.457-13.023-24.71-5.069-9.731-10.042-19.51-15.11-29.23-6.607-12.653-13.297-25.27-19.916-37.923-4.591-8.778-9.087-17.614-13.667-26.404-5.808-11.126-11.699-22.217-17.471-33.368-.906-1.741-1.86-2.17-3.781-1.61a7425.402 7425.402 0 0 1-52.89 15.265c-1.86.525-2.659 1.61-3.232 3.315a15100.836 15100.836 0 0 1-16.457 49.349 46669.73 46669.73 0 0 1-27.107 80.797c-.525 1.55-.167 2.075 1.335 2.492a2852.414 2852.414 0 0 1 29.445 8.36c1.502.429 2.23.25 2.79-1.348 2.076-5.939 4.341-11.806 6.428-17.733.573-1.634 1.3-2.123 3.053-1.765 7.072 1.431 14.18 2.719 21.276 4.055 13.476 2.552 26.94 5.116 40.416 7.656 1.36.262 2.481.656 3.065 2.135 3.971 10.029 8.086 19.999 11.938 30.064.727 1.908 1.8 2.683 3.577 3.184 21.61 6.106 43.207 12.248 64.816 18.39a7417.46 7417.46 0 0 1 21.789 6.225c.989.286 1.872.429 2.015-1.038-.095-.262-.167-.596-.322-.882v.012zM530.073 100.085a6295.76 6295.76 0 0 1-26.415-.847c-2.051-.071-2.326-.453-1.67-2.218 4.377-11.854 8.766-23.696 13.154-35.55.239-.656.561-1.288.847-1.932l.56-.072c.907 2.218 1.837 4.425 2.731 6.643 4.186 10.435 8.348 20.87 12.546 31.293.895 2.23.608 2.755-1.753 2.683zM421.251 36.199c-1.562.43-2.23 1.288-2.683 2.767a28191.837 28191.837 0 0 1-18.723 61.799c-.489 1.598-1.026 3.172-1.551 4.758l-.524-.024c-5.51-19.164-11.008-38.329-16.577-57.684-3.78 1.097-7.251 2.218-10.769 3.088-1.741.43-2.266 1.229-2.254 3.006.072 16.958.036 33.916.036 50.887 0 7.489-.024 14.978.024 22.456 0 .632.286 1.681.668 1.812 3.184 1.05 6.428 1.92 9.91 2.922v-41.8l.429.036c.131.442.286.871.394 1.324 3.566 13.917 7.143 27.823 10.649 41.74.382 1.527 1.026 2.361 2.612 2.755 3.661.906 7.299 1.944 10.9 3.065 1.419.441 1.98.071 2.421-1.288 4.079-12.534 8.217-25.044 12.355-37.554 1.24-3.745 2.493-7.478 3.745-11.222l.513.06v2.265c0 16.959.023 33.917-.036 50.887 0 1.694.525 2.457 2.17 2.886 5.701 1.515 11.354 3.184 17.03 4.794.608.179 1.252.263 2.004.418V29.795c-1.014.238-1.777.381-2.517.596-6.75 1.932-13.488 3.936-20.249 5.796l.023.012zm-164.836 70.159c-2.684-18.068-5.403-36.135-8.038-54.202-.215-1.443-.895-2.016-2.183-2.374-4.722-1.323-9.457-2.6-14.096-4.138-2.075-.68-2.969-.262-3.864 1.741-5.903 13.166-11.925 26.273-17.936 39.39-9.564 20.883-19.141 41.753-28.693 62.635-.167.369-.179.823-.298 1.383.453-.036.715 0 .942-.072 9.063-2.73 18.139-5.45 27.166-8.276.716-.227 1.432-1.133 1.718-1.884a583.38 583.38 0 0 0 5.676-15.253c.561-1.55 1.312-2.481 3.113-2.815 6.965-1.264 13.917-2.683 20.846-4.138 1.515-.322 2.123-.083 2.302 1.586.417 3.864 1.049 7.716 1.646 11.926 4.591-1.36 8.813-2.671 13.07-3.852 1.539-.429 1.694-1.216 1.467-2.624-1.014-6.332-1.908-12.689-2.85-19.033h.012zm-17.793-11.806c-3.34.095-6.679.071-10.316.071 2.623-6.953 5.235-13.882 7.847-20.81l.513.083c.62 4.436 1.252 8.873 1.872 13.31.274 1.967.608 3.923.775 5.89.048.49-.429 1.467-.691 1.467v-.011zm107.14-36.493c-.465.143-.99.668-1.133 1.133-.298.93-.37 1.932-.525 2.91-1.157 7.62-2.302 15.24-3.47 22.861-1.181 7.68-2.374 15.349-3.554 23.029l-1.61 10.518c-.286-.381-.453-.513-.501-.692-1.419-4.603-2.85-9.206-4.21-13.833-.107-.358.239-.895.465-1.3.823-1.479 2.063-2.827 2.481-4.4 2.301-8.695 2.099-17.543 1.121-26.38-.263-2.398-.93-4.795-1.801-7.049-.847-2.206-2.039-2.552-4.317-1.908-2.862.811-5.701 1.73-8.599 2.433-1.55.382-2.087 1.05-2.075 2.707.096 9.41.048 18.807.048 28.217 0 5.628.024 11.257-.024 16.886 0 1.086.227 1.777 1.395 1.968.823.131 1.634.37 2.72.608v-12.271c1.932-.286 3.053 0 3.494 2.051.775 3.602 1.801 7.155 2.802 10.709.179.62.62 1.503 1.133 1.658 4.15 1.288 8.336 2.433 12.832 3.709.454-2.946.895-5.593 1.264-8.241.155-1.061.418-1.777 1.73-1.514 2.862.572 5.736 1.025 8.574 1.669.513.119 1.121.883 1.241 1.443.512 2.385 1.121 4.794 1.204 7.215.095 2.874 1.276 4.21 4.091 4.651 2.349.37 4.627 1.252 7.298 2.004-4.556-24.734-9.004-48.967-13.488-73.296-3.136.895-5.879 1.646-8.598 2.505h.012zM326.657 88.04c-3.069.103-4.564-1.4-4.484-4.508.524-1.455 1.013-1.502 1.013-1.502 1.729-.191 3.351-.406 4.973-.454.489-.012 1.145.573 1.467 1.062.298.453.31 1.133.346 1.729.191 2.981-.358 3.578-3.315 3.685v-.012zm20.071 6.166c.822-5.367 1.61-10.543 2.409-15.719l.286-.035c.846 5.164 1.681 10.327 2.576 15.754h-5.271zm-54.262-30.84c-1.384-.668-2.958-.966-4.806-1.515-.418 10.292-.811 20.238-1.205 30.172-.644-.548-.882-1.133-1.085-1.74-3.315-10.197-6.619-20.406-9.958-30.59-.203-.632-.62-1.503-1.133-1.67-2.874-.954-5.808-1.73-9.099-2.671-1.741 24.15-3.447 47.858-5.176 71.912 2.934-.859 5.378-1.682 7.871-2.278 1.55-.37 2.099-1.097 2.182-2.719.608-11.64 1.324-23.28 2.004-34.907.036-.596.107-1.18.167-1.765.763.704 1.073 1.42 1.323 2.147l9.303 27.047c1.8 5.224 1.776 5.176 7 3.59 1.455-.441 1.932-1.157 1.968-2.659.143-7.084.417-14.168.644-21.252.298-9.66.596-19.332.823-28.991.011-.728-.311-1.86-.811-2.111h-.012zm19.915 19.522c-.191-2.302-.25-4.627-.668-6.893-.536-2.934-1.311-5.832-3.506-8.074-3.816-3.9-8.896-3.029-11.126 1.92-.513 1.145-.966 2.338-1.253 3.554-2.325 9.827-2.528 19.797-1.466 29.779.322 2.969 1.216 5.975 2.385 8.741 1.526 3.602 4.698 4.52 8.264 2.862 3.435-1.598 5.188-4.615 5.82-8.073.787-4.246 1.324-8.539 1.872-12.832.143-2.028.096-5.01.084-5.462-.131-1.837-.251-3.685-.406-5.522zm-3.84 11.222c-.059.394-.131.787-.214 1.18-.513 2.279-2.457 3.34-5.248 3.173-2.194-.143-3.494-1.204-3.613-3.673-.155-3.34-.119-6.714.191-10.053.238-2.6 1.574-3.614 3.852-3.661 2.79-.072 4.197.787 4.901 2.993.072.62.716 6.177.143 10.053l-.012-.012zM263.651 172h-3.72v-15.859h20.835v3.186h-17.115v4h16.65v2.953h-16.65V172zm23.163 0h-3.721v-15.859h3.721V172zm6.653-3.186h16.603V172h-20.323v-15.859h3.72v12.673zM315.721 172h-3.72v-15.859h4.534l10.325 12.79 10.301-12.79h4.465V172h-3.721v-11.441L328.697 172h-3.767l-9.209-11.441V172zm49.748-4.348c0 3.255-2.232 4.627-9.975 4.627-3.767 0-8.278-.535-11.069-1.186l.535-2.999c3.116.674 7.232 1.255 11.487 1.255 4.627 0 5.488-.488 5.488-1.79 0-1.395-.814-1.605-2.465-1.768l-8.906-.651c-4.488-.279-6.395-1.581-6.395-4.511 0-3.418 2.86-4.767 10.116-4.767 2.929 0 7.441.442 10.44 1.093l-.604 2.837c-2.698-.535-7-.977-10.674-.977-4.906 0-5.743.419-5.743 1.721 0 1.233.883 1.442 2.674 1.605l8.743.651c4.209.279 6.348 1.558 6.348 4.86z"/></svg>